/* XPM */
static char *bitcoin___[] = {
/* columns rows colors chars-per-pixel */
"16 16 209 2",
"   c #003123",
".  c #13286F",
"X  c #1A2B6F",
"o  c #1A2770",
"O  c #034048",
"+  c #094D49",
"@  c #0C494D",
"#  c #0C5C4B",
"$  c #045358",
"%  c #067147",
"&  c #0C5466",
"*  c #045864",
"=  c #155364",
"-  c #1C5F73",
";  c #185C7B",
":  c #16736E",
">  c #1B6275",
",  c #21767C",
"<  c #6D7772",
"1  c #6C7673",
"2  c #6E7773",
"3  c #6E7B76",
"4  c #6D7978",
"5  c #6F7C78",
"6  c #707B77",
"7  c #707B78",
"8  c #109473",
"9  c #1A9678",
"0  c #378D74",
"q  c #00AD64",
"w  c #0EB566",
"e  c #153281",
"r  c #233988",
"t  c #1D5E8B",
"y  c #1D4097",
"u  c #1F469A",
"i  c #1C5798",
"p  c #28439E",
"a  c #314A93",
"s  c #1F6F98",
"d  c #2C6F95",
"f  c #175AB9",
"g  c #2453A5",
"h  c #2E53A9",
"j  c #275CAF",
"k  c #2D4DB6",
"l  c #2153B7",
"z  c #2352BB",
"x  c #2A54BC",
"c  c #1569B1",
"v  c #2A76A3",
"b  c #2A66B5",
"n  c #3665BB",
"m  c #3963B9",
"M  c #3C65BC",
"N  c #326DB9",
"B  c #3968BD",
"V  c #4E6DB6",
"C  c #4263B9",
"Z  c #4165BA",
"A  c #4669BF",
"S  c #536EB9",
"D  c #6F7FAE",
"F  c #2165C8",
"G  c #3163C5",
"H  c #3E6BC0",
"J  c #3E6EC4",
"K  c #3C6EC7",
"L  c #3B66CF",
"P  c #3C6BCA",
"I  c #396CCD",
"U  c #3F72C7",
"Y  c #2C79D2",
"T  c #3E75D5",
"R  c #3679D1",
"E  c #3B7AD3",
"W  c #3A7BDF",
"Q  c #1777E8",
"!  c #227EED",
"~  c #406DC7",
"^  c #427EC4",
"/  c #4574CC",
"(  c #4563D3",
")  c #4577D7",
"_  c #4178D1",
"`  c #5673D0",
"'  c #436DE5",
"]  c #1E9B88",
"[  c #3584A8",
"{  c #2B9BAB",
"}  c #3595B7",
"|  c #3EB8AF",
" . c #798480",
".. c #7C8883",
"X. c #7B8986",
"o. c #7C8884",
"O. c #7F8B86",
"+. c #7F8D89",
"@. c #7E8A8D",
"#. c #7F8B8D",
"$. c #7E8C90",
"%. c #4E8CBF",
"&. c #768BAC",
"*. c #6787BE",
"=. c #3F85CE",
"-. c #3E89D2",
";. c #338CDC",
":. c #2C95D6",
">. c #3D92D3",
",. c #3F90DF",
"<. c #3A94DE",
"1. c #358FE4",
"2. c #398CE6",
"3. c #3D80EA",
"4. c #358EE8",
"5. c #3898E0",
"6. c #3F95ED",
"7. c #3F8CF7",
"8. c #418ECE",
"9. c #4E89C8",
"0. c #5A92CF",
"q. c #4083D1",
"w. c #4487D8",
"e. c #4084DD",
"r. c #458CDA",
"t. c #4488DC",
"y. c #418CDD",
"u. c #4C8ADA",
"i. c #5089D1",
"p. c #4F90DC",
"a. c #5894D5",
"s. c #5A92DA",
"d. c #6692CB",
"f. c #738AD0",
"g. c #7B95D2",
"h. c #40ACD3",
"j. c #67A9C4",
"k. c #70A2D5",
"l. c #438EE0",
"z. c #468EE1",
"x. c #5586E0",
"c. c #4D91E3",
"v. c #4D94E2",
"b. c #4F94E4",
"n. c #469BE1",
"m. c #4094EE",
"M. c #5194E6",
"N. c #5795EB",
"B. c #5C91EA",
"V. c #5A97EE",
"C. c #5B8FF3",
"Z. c #5286FB",
"A. c #6597E7",
"S. c #609FEC",
"D. c #688EF5",
"F. c #6094F0",
"G. c #6C99F3",
"H. c #689FF2",
"J. c #65A4E6",
"K. c #6CA1E4",
"L. c #67ADE5",
"P. c #6BA7EE",
"I. c #70A7EF",
"U. c #72ABEA",
"Y. c #73ACEA",
"T. c #61B9E8",
"R. c #75B4ED",
"E. c #72A2F1",
"W. c #75A5F2",
"Q. c #72A1F5",
"!. c #72AAF6",
"~. c #808A8C",
"^. c #808C94",
"/. c #808D94",
"(. c #8E9795",
"). c #8C9796",
"_. c #8D9B98",
"`. c #8E9A98",
"'. c #8293A3",
"]. c #8593A1",
"[. c #8695A3",
"{. c #8895A5",
"}. c #8995A6",
"|. c #8392AF",
" X c #8B9CAE",
".X c #92A6B4",
"XX c #95A9B3",
"oX c #92A0BA",
"OX c #A0AAAC",
"+X c #A4B0B8",
"@X c #A1B4B9",
"#X c #A4B7BC",
"$X c #8AAFCE",
"%X c #99AAC8",
"&X c #95B9CA",
"*X c #9DBBCE",
"=X c #87AED2",
"-X c #80ABDF",
";X c #A6BBC6",
":X c #A6BDC8",
">X c #B8BED2",
",X c #869CF4",
"<X c #86BEE9",
"1X c #95B5E5",
"2X c #99B2E5",
"3X c #B2C1D3",
"4X c #8EC0F0",
"5X c #A4CEFF",
"6X c None",
/* pixels */
"6X6X6X6X6X< @.{.[.$.2 6X6X6X6X6X",
"6X6X6X7  X*.V A C S D {.7 6X6X6X",
"6X6X+.&.a e . X r u g ~ g.~.6X6X",
"6Xo.|.h z x G R s * $ O f -X..6X",
"6XXXN Y 3.Z.T.9 0 j.1.- c 2.&X6X",
"(.k.Q ! 7.h.w { Q.5XG.6.m.1.4X_.",
"OX^ F I :.q | F.P R.!.W ;.c.K.+X",
";X>.E t.8 ] V.s.a.u.Y.w.y.5.x.>X",
":X8.e.} % L.) n B K J.p.v.p.N.3X",
"@X9.y.: , !.J U / T P.S.M.c.Y.#X",
").d.<.# [ Q./ B H B 0.=.l.y.4X_.",
"6X.X-.+ - I.A.i.9.d t =.N.H.*X6X",
"6X .$Xv   @ = & ; i y L C.2XX.6X",
"6X6XO.=Xr.j b z k p o Z 1X#.6X6X",
"6X6X6X5 %X,XD.' ( ` f.oX5 6X6X6X",
"6X6X6X6X6X2 $.'.[.$.5 6X6X6X6X6X"
};
