/* XPM */
static char *bitcoin___[] = {
/* columns rows colors chars-per-pixel */
"32 32 256 2",
"   c #002C13",
".  c #003816",
"X  c #002E0C",
"o  c #003A27",
"O  c #013838",
"+  c #00461A",
"@  c #00572B",
"#  c #005235",
"$  c #00693B",
"%  c #00783B",
"&  c #006222",
"*  c #231D48",
"=  c #19255B",
"-  c #24255B",
";  c #192A66",
":  c #17367C",
">  c #1A2F70",
",  c #25367B",
"<  c #27306E",
"1  c #014745",
"2  c #044658",
"3  c #03584F",
"4  c #026552",
"5  c #064B67",
"6  c #0C5A67",
"7  c #0C5175",
"8  c #1A6977",
"9  c #0C736E",
"0  c #216972",
"q  c #515E5D",
"w  c #4F5C59",
"e  c #53605E",
"r  c #546161",
"t  c #5D6A67",
"y  c #67736E",
"u  c #657473",
"i  c #6D7A75",
"p  c #6B7875",
"a  c #707E7B",
"s  c #019154",
"d  c #00A848",
"f  c #01A65D",
"g  c #0C8C72",
"h  c #00A66C",
"j  c #71817E",
"k  c #163889",
"l  c #0D3A91",
"z  c #243C83",
"x  c #223D8D",
"c  c #2A3795",
"v  c #2D3AAE",
"b  c #135988",
"n  c #1D4498",
"m  c #294189",
"M  c #294899",
"N  c #35489D",
"B  c #35549D",
"V  c #1A6397",
"C  c #116981",
"Z  c #29718E",
"A  c #1C48A6",
"S  c #195AA6",
"D  c #1E52B8",
"F  c #2D4CA7",
"G  c #2853A5",
"H  c #3456AD",
"J  c #2556B3",
"K  c #375AB5",
"L  c #2A49B6",
"P  c #1E6AA6",
"I  c #1C74AF",
"U  c #266AAA",
"Y  c #2A68B7",
"T  c #3A65B5",
"R  c #3D6CBF",
"E  c #3865B8",
"W  c #2772B5",
"Q  c #3375B9",
"!  c #2374A9",
"~  c #465497",
"^  c #424EA5",
"/  c #4867A3",
"(  c #496BBA",
")  c #4E71AB",
"_  c #1E53C5",
"`  c #2D59C7",
"'  c #3355C9",
"]  c #2957DB",
"[  c #2C4DD6",
"{  c #1866C8",
"}  c #1579CA",
"|  c #1968D3",
" . c #1C78D9",
".. c #2666C4",
"X. c #3D6EC2",
"o. c #3766C3",
"O. c #3E73CC",
"+. c #3A7BCD",
"@. c #3678C7",
"#. c #296AD9",
"$. c #3266DA",
"%. c #2677D6",
"&. c #3C72D1",
"*. c #3679D8",
"=. c #2A7DCE",
"-. c #0C6AE9",
";. c #1A77E7",
":. c #2866E3",
">. c #366AE4",
",. c #287AE5",
"<. c #3D7EE3",
"1. c #3F76F2",
"2. c #406FC7",
"3. c #4174CD",
"4. c #4D76CB",
"5. c #5577CA",
"6. c #4276D3",
"7. c #4279D4",
"8. c #437DDB",
"9. c #4F7FD9",
"0. c #567BD3",
"q. c #4168D2",
"w. c #627DC8",
"e. c #647FD8",
"r. c #4876E7",
"t. c #556FED",
"y. c #6578E3",
"u. c #2A8E80",
"i. c #14B096",
"p. c #2489A8",
"a. c #2B86BA",
"s. c #309BB8",
"d. c #12A8AD",
"f. c #758482",
"g. c #798682",
"h. c #4D96BB",
"j. c #7A8BAC",
"k. c #7B91B6",
"l. c #7088B6",
"z. c #27C190",
"x. c #4EC2B4",
"c. c #1C92D9",
"v. c #2983D7",
"b. c #3985D8",
"n. c #3B97D9",
"m. c #338FCB",
"M. c #33ACCC",
"N. c #1E80EA",
"B. c #2985E9",
"V. c #3987E5",
"C. c #2493E6",
"Z. c #3A98E9",
"A. c #3797F7",
"S. c #2F8FF3",
"D. c #3AA2E9",
"F. c #4684C9",
"G. c #5589CB",
"H. c #4484DD",
"J. c #4B84DB",
"K. c #4B8CDD",
"L. c #4988D7",
"P. c #5688D7",
"I. c #4599DC",
"U. c #539ADA",
"Y. c #779AC8",
"T. c #6282D3",
"R. c #778EDA",
"E. c #7698D9",
"W. c #6994CF",
"Q. c #57B6C8",
"!. c #40B7D5",
"~. c #6CA9DA",
"^. c #73AFDC",
"/. c #4B8DE2",
"(. c #468DE9",
"). c #4787E6",
"_. c #5488E6",
"`. c #4996EA",
"'. c #5393E5",
"]. c #5B9BE5",
"[. c #579AE7",
"{. c #4887F3",
"}. c #4C96F7",
"|. c #5A97F6",
" X c #639BE2",
".X c #6795E9",
"XX c #7288EE",
"oX c #48A7EC",
"OX c #52A4EE",
"+X c #5DA1EB",
"@X c #59A7E5",
"#X c #5CB2EC",
"$X c #57A4F2",
"%X c #5DBAF2",
"&X c #65A6E9",
"*X c #77A7E9",
"=X c #7DB7ED",
"-X c #67AAF4",
";X c #7CB8F5",
":X c #69B6F2",
">X c #53C3CD",
",X c #7AC2DC",
"<X c #7AC4F8",
"1X c #69C2F2",
"2X c #818F8E",
"3X c #8F9D99",
"4X c #899692",
"5X c #919C9A",
"6X c #95A19E",
"7X c #8498BA",
"8X c #9099B2",
"9X c #96A3A0",
"0X c #9AA7A5",
"qX c #A1ADAC",
"wX c #A6B2AE",
"eX c #A9B1AF",
"rX c #A3AFB5",
"tX c #A5B2BB",
"yX c #ACBBBB",
"uX c #A9B5B7",
"iX c #B2BDBB",
"pX c #B1BBB7",
"aX c #889DD6",
"sX c #96BBD9",
"dX c #94ADD4",
"fX c #A2B2C3",
"gX c #AAB6CA",
"hX c #AAB8C7",
"jX c #A5B5D2",
"kX c #ADB7CD",
"lX c #859BEA",
"zX c #8A99F7",
"xX c #87A8EB",
"cX c #92A9E9",
"vX c #8ABAF4",
"bX c #97BBF9",
"nX c #91B3EB",
"mX c #ABBCE3",
"MX c #99C4DF",
"NX c #ADC0C7",
"BX c #B8C8CA",
"VX c #A4C8DC",
"CX c #B9C5D2",
"ZX c #BAD1DB",
"AX c #89C4F8",
"SX c #9CC5F4",
"DX c #92CDEE",
"FX c #B4C6E4",
"GX c #A9D3E9",
"HX c #B8D4EA",
"JX c #B4DAFD",
"KX c #ACCCF2",
"LX c #C3CFD9",
"PX c #C6D5EF",
"IX c #DBECFF",
"UX c None",
/* pixels */
"UXUXUXUXUXUXUXUXUXUXUXUXq t u a p u t q UXUXUXUXUXUXUXUXUXUXUXUX",
"UXUXUXUXUXUXUXUXUXr a 3XqXtXgXjXjXfXfXqX5Xi r UXUXUXUXUXUXUXUXUX",
"UXUXUXUXUXUXUXr g.qXfXk.j.w.( 0.5.( T.W.8XfXeXg.r UXUXUXUXUXUXUX",
"UXUXUXUXUXUXu 0XhXE.4.D M H F F F A H N N / j.tX0Xp UXUXUXUXUXUX",
"UXUXUXUXUXj uX7X~ M M l k k k z k , m M M F K ( aXyXf.UXUXUXUXUX",
"UXUXUXUXg.yXk.m : : > ; = - = * ; z n G Y ..6.&.` R.hXf.UXUXUXUX",
"UXUXUX) uXk./ A ^ ' F N n B _ o.8.b.W 7 3 1 2 7  .$.xXBXa UXUXUX",
"UXUXu uX8XB ~ { ..] :.V.;.(.A.A.p.4 # # 1 1 o   7 | v.sXeXu UXUX",
"UXUX5XiX) G W I.C.>.:.y.A.bXQ.s @ $ Z m.C.D.Z   5 ;.{ L.GX3XUXUX",
"UX2XiXk.W { #.`.).y.|.|.DXx.s 4 u.,XIXAXS.}.a.7 n.,.v.&X1XNXj UX",
"UX9XNXU.OX-.-.;.N.,.{.%Xz.d s s.SXJXvXJXzXr.b.D.`.,.B.*.[.PX6XUX",
"UXyXdX .;.-.,.Z.`.}.oXi.f h !.-X:._.AX;XbX{.}.`.`.(.Z.Z.&XGXNXUX",
"2XNXj.{ %.*.<.9.B.S.i.d f >X|.).` D *XAXSX<.(.(.Z.D.@X&X#XSXLX2X",
"0XhX/ } K H S E v.d.f f M.AX4.0.4.T ~.:XAXP.$.*.=.=.L.8.b.0.CX6X",
"eXVX^.c.+.6...P.M.f s i.@X-X<X<X<X<X-X).;XSX*.b.v.b.b.@X+.e.FXeX",
"iXMXF.} K._.V.%Xu.% g #XP.7.+.X.R O.3.O.].vXb.U.OX$XD.Z.<.zXPXiX",
"pXsXG.c.@.L.`.s.$ 3 Q.;X6.3.E T E E R R U.=X+.+.8.+XI.Z.%.y.HXiX",
"eXVX~.a.=.L.@X9 & 9 AX-X).X.X.X.X.X.X.O.].=XJ./././.n.~.`..XHXeX",
"6XZXG.W @.[.n.$ @ a.vX-XO.X.3.6.7.8.).).$XAX+X+X+X[.OX'.U.=XPX6X",
"4XBXW.Q @.oXp.@ 4 I.*X XE R X.X.3.7.&.o.'.vX/.'.'.'.'./.K.xXZX2X",
"UXiXY...U.#X9 + 9 OX*X X2.2.X.E R X.K B G.=X).H.H.H.L.K.I.HXiXUX",
"UX6XfX+.v.oX8 . 8 OXE.*X6.2.K H T T K K  X~.V b.U.Z.K.@X%XHX6XUX",
"UXf.iXY.b.D.8 . 6 `.R.vX.XP.G.4.P. XU.F.Z ; P oX&X(.|.'.vXBXj UX",
"UXUX3XhX) *.Z . + ! .XxX*X X X@X@Xh.0 1 5 Q /.(./..X.X*XHX3XUXUX",
"UXUXu wX8Xm.n.O   o 6 V P V 7 5 O O 2 S J F K _.'..X.XKXuXu UXUX",
"UXUXUXj yXMX#XP O     X     o 2 b @.8.D k k L r._._.cXkXa UXUXUX",
"UXUXUXUXg.pXj.K.b.I n b V W ....J K K c < , M &..XbXCXf.UXUXUXUX",
"UXUXUXUXUXj yXsX%X{.t.r.{.t.#.v c F M , = < m w.mXhXj UXUXUXUXUX",
"UXUXUXUXUXUXu wXFXbXXXr.r.r.>.[ [ [ ' ' ' 4.lXmX0Xu UXUXUXUXUXUX",
"UXUXUXUXUXUXUXq f.rXmXcXE.XX_.] q.0.e.R.cXFXuXg.r UXUXUXUXUXUXUX",
"UXUXUXUXUXUXUXUXUXr a 5XtXgXjXjXgXgXhXrX5Xa e UXUXUXUXUXUXUXUXUX",
"UXUXUXUXUXUXUXUXUXUXUXUXw t y i i y t q UXUXUXUXUXUXUXUXUXUXUXUX"
};
