/* XPM */
static char *bitcoin___[] = {
/* columns rows colors chars-per-pixel */
"64 64 256 2",
"   c #00361A",
".  c #002D1C",
"X  c #003726",
"o  c #003637",
"O  c #002C32",
"+  c #241A33",
"@  c #004427",
"#  c #005429",
"$  c #004837",
"%  c #005739",
"&  c #007935",
"*  c #006B2F",
"=  c #00431E",
"-  c #271E49",
";  c #003A49",
":  c #0A2B55",
">  c #272858",
",  c #1A2D67",
"<  c #183375",
"1  c #0C306F",
"2  c #26397A",
"3  c #2F306F",
"4  c #121F48",
"5  c #473377",
"6  c #004646",
"7  c #005847",
"8  c #004659",
"9  c #005757",
"0  c #007857",
"q  c #00694E",
"w  c #024867",
"e  c #055575",
"r  c #045171",
"t  c #007272",
"y  c #2B447C",
"u  c #4D585A",
"i  c #515D5E",
"p  c #525F60",
"a  c #546263",
"s  c #5B6A6B",
"d  c #596667",
"f  c #647474",
"g  c #6A7A7A",
"h  c #6D7C79",
"j  c #008538",
"k  c #008C51",
"l  c #00A65A",
"z  c #00AD4B",
"x  c #019370",
"c  c #00AA6F",
"v  c #74827E",
"b  c #6F807F",
"n  c #05C17A",
"m  c #143889",
"M  c #183B93",
"N  c #0F338A",
"B  c #253C86",
"V  c #303B8E",
"C  c #3438B3",
"Z  c #163CA1",
"A  c #4D3BAE",
"S  c #1A4398",
"D  c #0C548A",
"F  c #28428B",
"G  c #2A4897",
"H  c #354D93",
"J  c #0F6C90",
"K  c #1949A8",
"L  c #1853B1",
"P  c #284BA6",
"I  c #354CA7",
"U  c #2A58A9",
"Y  c #3557A9",
"T  c #254ABA",
"R  c #2858B6",
"E  c #355AB5",
"W  c #1967BB",
"Q  c #166DAD",
"!  c #2869BA",
"~  c #3B64B4",
"^  c #3C6ABC",
"/  c #3865B9",
"(  c #3873BC",
")  c #2E73B1",
"_  c #2A6D9C",
"`  c #4B578F",
"'  c #4D689A",
"]  c #6C7D83",
"[  c #6A738F",
"{  c #4B52B3",
"}  c #4466BA",
"|  c #4575B8",
" . c #5170AD",
".. c #6577B2",
"X. c #6251AB",
"o. c #1B59C7",
"O. c #1959D8",
"+. c #164DCF",
"@. c #3758C6",
"#. c #2E55D0",
"$. c #1969C9",
"%. c #1966D8",
"&. c #1274D0",
"*. c #2869C6",
"=. c #3D6DC3",
"-. c #3666C9",
";. c #2976CA",
":. c #3C76C9",
">. c #2868D9",
",. c #3768D5",
"<. c #2977D6",
"1. c #3879D7",
"2. c #1969E4",
"3. c #1977E8",
"4. c #0A72E7",
"5. c #2C68E4",
"6. c #2678E9",
"7. c #3779E7",
"8. c #3868E4",
"9. c #2055E4",
"0. c #456BC4",
"q. c #4274CB",
"w. c #4476C9",
"e. c #486BD4",
"r. c #437BD3",
"t. c #4679D7",
"y. c #5677D6",
"u. c #5675CD",
"i. c #667CD3",
"p. c #4776E6",
"a. c #5173E5",
"s. c #6A75EB",
"d. c #484DD9",
"f. c #342CE3",
"g. c #807899",
"h. c #0D8F94",
"j. c #03AD8E",
"k. c #168CA7",
"l. c #2F88B0",
"z. c #12AAB3",
"x. c #2DAFAD",
"c. c #288A9D",
"v. c #748484",
"b. c #798A8A",
"n. c #728383",
"m. c #7088AF",
"M. c #5E8EBF",
"N. c #108CD7",
"B. c #2886D9",
"V. c #3A86D8",
"C. c #3996DA",
"Z. c #318CCE",
"A. c #35B4D5",
"S. c #1B87E7",
"D. c #1495E9",
"F. c #2887E8",
"G. c #3888E6",
"H. c #2895E8",
"J. c #3995E8",
"K. c #2D93F5",
"L. c #39A5E9",
"P. c #32A9F0",
"I. c #12A0E6",
"U. c #4583DC",
"Y. c #4987DA",
"T. c #5689D9",
"R. c #4A98D9",
"E. c #5994DC",
"W. c #5288C9",
"Q. c #6689D9",
"!. c #6697D5",
"~. c #708ECC",
"^. c #54A5D7",
"/. c #74A9D9",
"(. c #68A3DB",
"). c #4C8CE3",
"_. c #4788E6",
"`. c #5689E5",
"'. c #4A95E6",
"]. c #5797E8",
"[. c #4698F2",
"{. c #559CF3",
"}. c #458DF0",
"|. c #688AE7",
" X c #7489EA",
".X c #679AE8",
"XX c #7696E8",
"oX c #739AF2",
"OX c #49A6E8",
"+X c #5CA3EB",
"@X c #58AAE9",
"#X c #5AA6F4",
"$X c #57B4F6",
"%X c #4BB4F0",
"&X c #68A7EA",
"*X c #75A6E9",
"=X c #78B8E9",
"-X c #65A8F5",
";X c #6AB6F8",
":X c #77B8F7",
">X c #6DB1ED",
",X c #79C6FB",
"<X c #72C3F1",
"1X c #63CED9",
"2X c #84928D",
"3X c #839493",
"4X c #8B9B96",
"5X c #8A9998",
"6X c #8A9791",
"7X c #95A19B",
"8X c #8895AE",
"9X c #95A3A3",
"0X c #9BA8A7",
"qX c #95A8BB",
"wX c #A3AEAC",
"eX c #A2A9A7",
"rX c #ABB7B5",
"tX c #B2BCB8",
"yX c #A8B2AE",
"uX c #B9C2BD",
"iX c #C2C3BA",
"pX c #8C9ACA",
"aX c #92AAD2",
"sX c #A9B8CB",
"dX c #A7B8D4",
"fX c #8E99ED",
"gX c #95A9E9",
"hX c #88B7EB",
"jX c #97BAE9",
"kX c #8DADF1",
"lX c #A7B7E7",
"zX c #AFBBF4",
"xX c #BAC5C7",
"cX c #BAC8D3",
"vX c #BDD3DB",
"bX c #ABC1D9",
"nX c #96C5E9",
"mX c #89C9F6",
"MX c #97C8F7",
"NX c #8BD5FD",
"BX c #97D6FB",
"VX c #89C9E7",
"CX c #A8D8F7",
"ZX c #B8DAF7",
"AX c #B0CBEF",
"SX c #9AE1FF",
"DX c #B8E3FA",
"FX c #AAE2F9",
"GX c #C2CBC8",
"HX c #C4CDD7",
"JX c #C7D4D8",
"KX c #C3D1CF",
"LX c #C9D6ED",
"PX c #CCE6F5",
"IX c #EDFAFE",
"UX c None",
/* pixels */
"UXUXUXUXUXUXUXUXUXUXUXUXUXUXUXUXUXUXUXUXUXUXUXUXUXUXu u p p p a a a i u u u UXUXUXUXUXUXUXUXUXUXUXUXUXUXUXUXUXUXUXUXUXUXUXUXUXUX",
"UXUXUXUXUXUXUXUXUXUXUXUXUXUXUXUXUXUXUXUXUXUXu p s s f f h h v v v v v v h s f s p u UXUXUXUXUXUXUXUXUXUXUXUXUXUXUXUXUXUXUXUXUXUX",
"UXUXUXUXUXUXUXUXUXUXUXUXUXUXUXUXUXUXUXUXa s g v 2X4XwXrXsXGXHXHXHXxXxXsXtXeX7Xb.h f s a UXUXUXUXUXUXUXUXUXUXUXUXUXUXUXUXUXUXUXUX",
"UXUXUXUXUXUXUXUXUXUXUXUXUXUXUXUXUXi s f b 2XeXtXtXxXsXsXqXpXdXgXgXpXpXaXdXdXxXiXiXeX6X] g s i UXUXUXUXUXUXUXUXUXUXUXUXUXUXUXUXUX",
"UXUXUXUXUXUXUXUXUXUXUXUXUXUXUXUXs f v.7XuXcXsXqX8X8Xm.~. . .~.i.~. .| ..~.~.~.8XeXtXiXtX7Xb.g s UXUXUXUXUXUXUXUXUXUXUXUXUXUXUXUX",
"UXUXUXUXUXUXUXUXUXUXUXUXUXUXd g v.7XuXcXsX~..... . .u.0.E R -.y.i.0.T 0.e.u.y. .[ [ pXsXcXtX7Xv g d UXUXUXUXUXUXUXUXUXUXUXUXUXUX",
"UXUXUXUXUXUXUXUXUXUXUXUXUXf h 5XtXHXdX~.M.| ! P V H E U E Y R K T K K I E E E Y Y ' ' ..8XqXxXtX6X] f UXUXUXUXUXUXUXUXUXUXUXUXUX",
"UXUXUXUXUXUXUXUXUXUXUXa g b.0XxXaXpX~.r.u./ o.K P I T E Y P G Y G S N V P I G G P P G H Y [ m.sXGXeXv.g a UXUXUXUXUXUXUXUXUXUXUX",
"UXUXUXUXUXUXUXUXUXUXs ] b.uXxX8X..' ` K H G Z N m H M N M S F G F G F M H I P I P P U Y T Y ..i.pXLXtX2Xn.d UXUXUXUXUXUXUXUXUXUX",
"UXUXUXUXUXUXUXUXUXs n.5XxXsXm.' H H H S S U M N m B B N m N < 2 B B F B m H G F F Y E I { 0.} / 0.~.lXGX3Xv.s UXUXUXUXUXUXUXUXUX",
"UXUXUXUXUXUXUXUXs v.4XiXrXm.' y < < 2 < 1 2 : , : 4 > : : 4 - - 4 , , 2 1 1 1 2 H Y E / 0.=./ E E } i.dXcX4Xn.s UXUXUXUXUXUXUXUX",
"UXUXUXUXUXUXUXs v.4XxXrXm._ G M m 1 F m 1 3 , 1 4 3 3 > , , + - , < F G S S ! W ;.<.:.;.V.G._.t.o.@.} i.lXxX5Xn.s UXUXUXUXUXUXUX",
"UXUXUXUXUXUXUXv.3XxXdXm...U L L T { I L V 3 V V N > - H K P I Y R -.q.r._.B.B.Q J e w w w r J ;.F.5.5.a.XXbXKX5Xv.UXUXUXUXUXUXUX",
"UXUXUXUXUXUX] 5XtXdXm.' X.Y L L A A X.$.@.A X.>.+.o.} ,.2.5.5.a.G.[.#XV.Q e 8 7 $ % # $ o O o : Q F.5.#.].<XIXxX3Xh UXUXUXUXUXUX",
"UXUXUXUXUXf 2XrXuXm.' ` 5 X.R o.I { e.>.2.5.`.6.6.6._.].S.S.K.-X$XN.x 9 % % @ X X X X X X X X X : W 6.T ;.C.aXvXrXb.g UXUXUXUXUX",
"UXUXUXUXUX2XeXHXqXm.-.P u } %.$.&.S.2.%.O.2.}.6.3.3.7.-XK.K.P.Z.h.9 7 * * * % 7 9 9 9 8 o X . . O D <.o.B.B.!.hXvX0Xb.UXUXUXUXUX",
"UXUXUXUXv.4XuXsX[ ~ U K U $.W ;.N.N.O.O.O.9.|.a.3.S.}.kXmX%Xk.0 7 6 $ $ 6 w J Q Z.H.H.H._ 8 X . O D S.+.+.&.W.!.bXxX4Xb UXUXUXUX",
"UXUXUXf 3XyXxXqXm._ _ _  .Z.(.DXH.K.s.a.2.a.d.s.-XP.zXPX1Xj.0 k & & * t l.^.P.%XP.K.K.[.,Xe X X ; Q D.%.$.$.;.R.<XDXuXb.f UXUXUX",
"UXUXUXb.9XuXqXM.U K $.L @.%.V.E.G.a.f.fX#X[.s.|.1XNXPXx.x k 0 & & 0 c.nXIXIXMXK.S.S.S.K.<XJ o ; D P.H.>.&.&./.@X%XBXcX7Xb.UXUXUX",
"UXUXUX5XrXcXM.) W 4.D.4.5.J.<.F.H.`. XkX;X#X$XP.,XFXx.c k 0 q q J ^.NXPXAXPXIX-X6.oXfX}.N.J D l.,X%XJ.7.J.L.CX>XA.<XLXuX5XUXUXUX",
"UXUXb.9XGXbX!.^.nXOXN.O.O.3.%.7.4.6.7.4.6.G.#XhX1Xn c z z k t x.PXIXBXmXkXBXZXIXkXa.d.oXB.C.P.%XOXJ.F.4.3.S.,.1.F.:XLXJX9Xv.UXUX",
"UXUX3XyXKXpXR.Z.hXJ.4.4.2.4.4.F.S.4.4.5.7.}.;XA.c l z z l x A.:X].kXPXZX:X#X:XPXZX8.a.8.p.}.L.G.Y.G.2.5.G.6.7.%.Y.*XzXPXyX5XUXUX",
"UX] 9XxXdX!.Z.N.,.O.4.2.4.4.S.'.K.#X-X-X>X$XA.j.x l l c h.A.:X#X5.>.>.zXZX-X#XMXPXoX7.}.'.{.J.].'.[.G.`.1.J.D.G.*X>XhXZXxX9Xn.UX",
"UX2XwXxXdX~.N.4.7.3.4.4.6.[.[.].{.L.F.K.{.A.j.c l l c j.%X:X{.{.5.5.5.#.ZXMX#X:XPXkX}.[.{.[.[.G.+XH.J.).>XI.H.*X-XOXnXDXJXwXb.UX",
"UX5XtXxXpX..%.4.<.3.4.F.].S.}.`.K.H.S.K.%Xn z z z z n 1X:X#X{.].5.>.p.+.XXDX-X;XDXMX7.}.}.{.J.].'.L.I.>XCXL.;XhX>XOXCXPXZXtX4XUX",
"UX0XuXsXb.' ;.$.;.>.t.u.%.1.e.i.1.S.K.P.j.l z z z j.1XBX}.`._._.-.T 0.+.0.CX;X;XCXjX7.p.p._.J._._.H.P.B.V.'.-X*X@XOX.XgXLXxX0XUX",
"b.wXxXrX .` Q &.^ Y I X.K *.P | *.<.B.z.x c x x j.A.DXE.T T T @.T N M N I SX;X;XBXjX#.>.,.1.<.1.1.B.D.$.E.R.`.a.J.U.i.pXlXKXwXb.",
"3XrXxXaX' Y N.N.( U ! U K W Q ( ;.H.z.c l z l c z.<XBX=XW.!.!.!.!.W.~.W.!.NX+X].<XMX*X`.-.,.<.r.:.;.$.q.T.1.-.:.H.:.0.~.dXKXtXb.",
"5XtXKXaXW./.I.N.( ! $.E U L ^ Q.R.I.c l z z l j.$X.X&X,XSXSXSXSXSXSXSXNXNX>XR.Y.+XBXPXhX@.-.<.:.V.&.B.w.Y.;.(.C.N.! } Q.dXJXtX7X",
"5XxXJXVXVXDXI.N.E.E.`.|.1.&.y.E.L.h.k k k k j.%X&X).].#X#X$X;X+X+X@X@X@XOX].'.`.].,XDXhX>.G.G.V.B.D.H.V.J.I.CX=XJ.t.i.fXzXLXtX9X",
"0XGXvX=XZ. .W &.T.).].].`.H.OXFXz.x 0 0 0 t ^.;X)._.U.t.U.U.r.=.:.r.r.r.U.r.t.U.).-XFXhXY.'.C.=X<XH.+X.X'.N.R.U.B.,.s.zXzXLXGX0X",
"0XKXvX*XW.| Z.&.r.t.p.t.p.H.%X<Xx k j j 0 x.,X+Xt.r.q.q.q.^ Y / / / / ^ ^ =.=.q.r.+XBX=X*.V.B.(.*X6.#X.X@XI.H.C.J.7.s.zXLXPXGX0X",
"0XKXxX/.| | N.N.Z.E.T.T.R.@X$Xh.0 & j q x VX,X).e.q.:.w.^ Y ~ ~ ^ / ^ ^ w.:.w.:.Y.+XBX=Xr.Y.R.;.w.].'.<XFXD.Z.G.H.<.s.fXzXPXxX0X",
"0XiXKX/.M./.N.N.! 1.:.r.U.OXC.t 7 % * 9 Z.FX:X`.t._.t.q./ / / ^ ^ ^ / ^ ~ / ^ =.w.].BX/.! 1.U.*.,.`.J.Y.!.&.(.OXS.,.e.y.kXLXGX0X",
"7XxXKX=X=XCXR.B.;.Y.R.R.].;Xk.0 * * * J >XFX:X].).).r.=.=.:.:.=.0.q.0.^ =.=.q.=.r.@XBX*X:.).].Y._.'.'.U.B.C.CX@XS.t.T.XXnXLXuX9X",
"4XtXKXnX^.| _ ) ) V.U.Y.'.%Xt & * * 0 l.;XBX;X`.Y.r./ / ^ ^ ^ ^ ^ ( ( =.^ =.q.r.U.&XmX*XY.].).].'.R.'.).'.C.W.T.&X.X&XkXCXLXtX5X",
"b.tXJXnX!.) ) ! ! :.V.Y.#XZ.7 % # % e L.&XMX:X].t.-.q.q.:.r.r.r.U.1.t.U._._.).}.{.-XBX>X].+X+X].].].].].OX'.E.].].].*XhXCXJXrX2X",
"b.yXKXCX/.W.Z.W.Z.Y.R.+X;Xh.7 # % 7 J ;X&XAX,X`.q.q.:.0.r.:.q.r.r.t.U.t.t._._.p.}.-XCX:X&X-X>X&X&X&X&X+X&X@X+X+X@X(.>XjXZXKXwXb.",
"UX9XuXvX/.l.! ( $.<.).%X%Xt & * & q A.+XT.MX:Xr.^ | =.=.=.=.:.=.:.q.e.1.t.t.,.1._.+XBX*X).}.].].'.].)._.'.).).).Y.).!.hXZXxX9XUX",
"UX5XuXvXaXM.(  .) ) R.$XR.8 @ @ $ 9 OX].T.nX&X0.~ ~ ^ ^ =.=.=.=.q.:.:.r.r.^ E E q..XMX.XY.].).).).).).E.).).].).T.E.!.VXLXtX7XUX",
"UXb.wXvXaX| R W ) nXOXP.l.9 # # $ J $X_.T.jX>XY.q.0.0.:.^ w./ =.q.q.:.r.=.E E Y w.!.mX!.1._.U.U.U._.U.Y.Y.Y.Y.U.C.R.AXDXvXwXb.UX",
"UXv.9XxXdXW.-.S.H.VXR.%Xl.7 # # % c.<X{.t.jX:Xy.t.w.:.0.0./ Y ~ / ~ / ~ Y U Y U } E.mX!._.].).Y.V.t.V.V.U.Y.V.T.L.L.AXPXxX7Xv.UX",
"UXUX5XrXGX~.| F.;.Z.N.NXc.$ X @ o ) ,X@XY.lX:X`.t.t.q.q./ / U E ^ / / ~ Y Y Y Y ~ &XBX:X'.W W ].U.Y.OXR.].R.R.DX%XA.jXLXrX3XUXUX",
"UXUXv.0XGXqX .Z.;.V.D.$X_ % # @ % k.$XG.0.jX:X`.y.t.t.:./ E E / ^ 0.=.| / ~ ~ ( Y.hXmX) r r ;.'.!.OXH.Y.p.J.B.hX^.>XZXJX9Xb.UXUX",
"UXUXUX5XyXxXm.( ) Z.I.%X_ o   X $ J <X}.0.lX=XT.t.t.u./ } ~ Y ~ ~ | ( | w.w.Y.].R.l.e ; ; W #XOXCX<XH.].`.[.J.Q..XhXLXtX5XUXUXUX",
"UXUXUXb.9XGXsX!.W.R.N.#Xl.$ # = o r %XG.@.lXAX:X*X&X.XE.E.E.E.E.E.(.&X&X>X;XR.) r ; ; ; ! {.OXF.Y.t._.|. X{.`.*X=XBXJX9Xv.UXUXUX",
"UXUXUXf 3XrXcX/.M.' &.+XW.; = = @ 6 l.#Xt.lXAXzXnXhXhXhXhX=X=X<XmXNXNXmX^._ 8 o o ; D V.[.].{.J.`.`.).|. X.X.XhXnXDXtX3Xf UXUXUX",
"UXUXUXUXn.4XuXrX[ ` W Y.R.8 @     X 6 ! [.`.T.y.u.u.w.w.w.w.U.U.C.:.Q w ; X X 6 r ) E.u.-.y.a._.|.].{.oXXX.X].jXDXcX5Xv.UXUXUXUX",
"UXUXUXUXUXb.0XxX8X[ ) V.#XJ o       @ 6 e l.Z.G.J.U.V.B.;.Q Q J w 6 $ @ @ ; 1 Q <.*.Y G T e.a._.`..X{.oXoX{.&XAXLXeXb.UXUXUXUXUX",
"UXUXUXUXUXf 3XrXxXm.W.l.OXZ.8 X       . o ; 8 w r r r w 8 6 o X X X O ; r Q ;.! G m B G K 0.a._.].`.].XX XXXgXPXrX2Xg UXUXUXUXUX",
"UXUXUXUXUXUX] 3XuXvX/.VXNXP.) ; X                 X     =   X X $ w J ;._.1.! S N N M V S @.p.G.`.`.}.a.e.pXAXxX6X] UXUXUXUXUXUX",
"UXUXUXUXUXUXUXv.4XKXCXbXaXH.%X;.1 o X .             X X X ; w D W <.Y.p.t.-.T Z N N m C Z T e.G.|.`.].|.fXAXHX5Xv.UXUXUXUXUXUXUX",
"UXUXUXUXUXUXUXs b.4XxXqXh ' V.'.R.Q e w ; 8 ; ; ; w r D Q $.6.7.>.*./ e.e.-.P Z V V B V G T ,.p.`..X-XgXLXHX5Xv.s UXUXUXUXUXUXUX",
"UXUXUXUXUXUXUXUXs v.7XuXrXm.W.W.].P.[.'.V.<.<.1.V.G.}.}.7.;.#.Z S S I Y I G F 2 3 > 3 B B M =._.XX*XkXLXJX5Xb.s UXUXUXUXUXUXUXUX",
"UXUXUXUXUXUXUXUXUXs n.4XuXbX/.!.].H.K.a.p.5.7.a.p._.a.e.-.T M V 3 2 F G F F 2 , - - > 3 2 2 } T.~.jXvXHX5Xv.s UXUXUXUXUXUXUXUXUX",
"UXUXUXUXUXUXUXUXUXUXd b 2XtXAXAXCX[.`.s.s.a.8.p.p.p.p.p.,.O.#.C A C T E I P F B < < 2 2 B ` ..!.lXLXtXb.] d UXUXUXUXUXUXUXUXUXUX",
"UXUXUXUXUXUXUXUXUXUXUXd g b.wXPXPXhXoXfXfXs.5.p.p.p.p.7.8.5.9.d.d.9.#.#.#.@.@.T T T { } u.~.gXAXJXwXb.g a UXUXUXUXUXUXUXUXUXUXUX",
"UXUXUXUXUXUXUXUXUXUXUXUXUXf v 2XsXHXzXgXfX|.8.a.a.p.a.p.p.5.O.#.#.+.#.@.d.@.-.@.-.e.y. XgXzXLXxX3Xh f UXUXUXUXUXUXUXUXUXUXUXUXUX",
"UXUXUXUXUXUXUXUXUXUXUXUXUXUXa f v.7XsXLXzXgX Xi.Q.s.Q.y.p.1.9.O.#.@.e.e.e.y.y.i.Q. XgXAXLXHX7X] g a UXUXUXUXUXUXUXUXUXUXUXUXUXUX",
"UXUXUXUXUXUXUXUXUXUXUXUXUXUXUXUXd g v.7XdXLXLXlXaXfXXX X XT.e.,.e.i.i.i. X~.~.fXlXzXLXxXeX] g s UXUXUXUXUXUXUXUXUXUXUXUXUXUXUXUX",
"UXUXUXUXUXUXUXUXUXUXUXUXUXUXUXUXUXi d f h 6XyXxXJXAXAXzXlXgXpXpXpXaXaXlXdXdXHXHXxXeX2Xh f s i UXUXUXUXUXUXUXUXUXUXUXUXUXUXUXUXUX",
"UXUXUXUXUXUXUXUXUXUXUXUXUXUXUXUXUXUXUXUXa s f h b.7XeXtXuXGXcXcXGXGXxXuXtXeX4X2Xh f s a UXUXUXUXUXUXUXUXUXUXUXUXUXUXUXUXUXUXUXUX",
"UXUXUXUXUXUXUXUXUXUXUXUXUXUXUXUXUXUXUXUXUXUXu i d s f f h h v v ] ] h h g s s d a u UXUXUXUXUXUXUXUXUXUXUXUXUXUXUXUXUXUXUXUXUXUX",
"UXUXUXUXUXUXUXUXUXUXUXUXUXUXUXUXUXUXUXUXUXUXUXUXUXUXu u i i a i a a i u u u UXUXUXUXUXUXUXUXUXUXUXUXUXUXUXUXUXUXUXUXUXUXUXUXUXUX"
};
